<?xml version="1.0" encoding="UTF-8"?>
<!DOCTYPE svg PUBLIC "-//W3C//DTD SVG 1.1//EN" "http://www.w3.org/Graphics/SVG/1.1/DTD/svg11.dtd">
<!-- Creator: CorelDRAW 2017 -->
<svg xmlns="http://www.w3.org/2000/svg" xml:space="preserve" width="100.254mm" height="18.2626mm" version="1.1" style="shape-rendering:geometricPrecision; text-rendering:geometricPrecision; image-rendering:optimizeQuality; fill-rule:evenodd; clip-rule:evenodd"
viewBox="0 0 10025.38 1826.26"
 xmlns:xlink="http://www.w3.org/1999/xlink">
 <defs>
  <style type="text/css">
   <![CDATA[
    .fil1 {fill:#FF9800;fill-rule:nonzero}
    .fil0 {fill:white;fill-rule:nonzero}
   ]]>
  </style>
 </defs>
 <g id="Layer_x0020_1">
  <metadata id="CorelCorpID_0Corel-Layer"/>
  <g id="_2568619661344">
   <path class="fil0" d="M1117.6 807.72l0 970.28 -91.44 0 -119.38 -83.82c-49.11,42.33 -103.72,74.93 -163.83,97.79 -60.11,22.86 -124.04,34.29 -191.77,34.29 -76.2,0 -147.74,-14.82 -214.63,-44.45 -66.89,-29.63 -125.31,-69.85 -175.26,-120.65 -49.95,-50.8 -89.32,-110.07 -118.11,-177.8 -28.79,-67.73 -43.18,-140.55 -43.18,-218.44 0,-77.89 14.39,-151.13 43.18,-219.71 28.79,-68.58 68.16,-128.27 118.11,-179.07 49.95,-50.8 108.37,-91.02 175.26,-120.65 66.89,-29.63 138.43,-44.45 214.63,-44.45 59.27,0 116.42,9.31 171.45,27.94 55.03,18.63 105.41,44.87 151.13,78.74l243.84 0zm-566.42 759.46c40.64,0 78.32,-8.04 113.03,-24.13 34.71,-16.09 65.62,-37.68 92.71,-65.62 27.09,-27.94 48.26,-60.11 63.5,-96.09 15.24,-36.41 22.86,-75.36 22.86,-117.69 0,-42.33 -7.62,-81.28 -22.86,-117.69 -15.24,-35.98 -36.41,-68.15 -63.5,-96.09 -27.09,-27.94 -58,-49.53 -92.71,-65.62 -34.71,-16.09 -72.39,-24.13 -113.03,-24.13 -40.64,0 -78.32,8.04 -113.03,24.13 -34.71,16.09 -65.62,37.68 -92.71,65.62 -27.09,27.94 -48.26,60.11 -63.5,96.09 -15.24,36.41 -22.86,75.36 -22.86,117.69 0,42.33 7.62,81.28 22.86,117.69 15.24,35.98 36.41,68.15 63.5,96.09 27.09,27.94 58,49.53 92.71,65.62 34.71,16.09 72.39,24.13 113.03,24.13zm1244.6 -866.14c106.68,0 203.2,28.79 289.56,86.36l0 -787.4 259.08 0 0 1778 -98.64 0 -104.14 -78.74c-47.41,38.95 -100.33,69.85 -159.59,92.71 -59.27,22.86 -121.5,34.29 -187.54,34.29 -76.2,0 -147.32,-14.82 -214.21,-44.45 -66.46,-29.63 -124.88,-69.85 -174.83,-120.65 -49.96,-50.8 -88.9,-110.07 -117.69,-177.8 -28.79,-67.73 -43.18,-140.55 -43.18,-218.44 0,-77.89 14.39,-151.13 43.18,-219.71 28.79,-68.58 68.16,-128.27 118.11,-179.07 49.95,-50.8 108.37,-91.02 175.26,-120.65 66.89,-29.63 138.43,-44.45 214.63,-44.45zm0 866.14c37.25,0 72.81,-7.2 106.68,-21.59 33.87,-14.39 63.5,-33.44 88.9,-58 25.4,-24.55 46.57,-53.76 63.5,-87.2 16.93,-33.87 27.09,-69.43 30.48,-106.26l0 -60.96c-3.39,-38.52 -13.55,-74.51 -30.48,-107.53 -16.93,-32.59 -38.1,-61.38 -63.5,-85.93 -25.4,-24.56 -55.03,-43.61 -88.9,-58 -33.87,-14.39 -69.43,-21.59 -106.68,-21.59 -40.64,0 -78.32,8.04 -113.03,24.13 -34.71,16.09 -65.62,37.68 -92.71,65.62 -27.09,27.94 -48.26,60.11 -63.5,96.09 -15.24,36.41 -22.86,75.36 -22.86,117.69 0,42.33 7.62,81.28 22.86,117.69 15.24,35.98 36.41,68.15 63.5,96.09 27.09,27.94 58,49.53 92.71,65.62 34.71,16.09 72.39,24.13 113.03,24.13zm2095.5 -914.4c77.89,0 150.71,14.82 218.44,44.45 67.73,29.63 127,70.7 177.8,123.19 50.8,52.49 91.02,113.03 120.65,181.61 29.63,68.58 44.45,142.66 44.45,222.25l0 553.72 -259.08 0 0 -553.72c0,-44.03 -8.04,-84.67 -24.13,-121.92 -16.09,-37.25 -37.68,-70.27 -64.77,-99.06 -27.09,-28.79 -58.84,-51.22 -95.25,-67.31 -36.41,-16.09 -75.78,-24.13 -118.11,-24.13 -40.64,0 -79.16,8.04 -115.57,24.13 -36.41,16.09 -68.16,38.52 -95.25,67.31 -27.09,28.79 -48.68,61.81 -64.77,99.06 -16.09,37.25 -24.13,77.89 -24.13,121.92l0 0 0 553.72 -259.08 0 0 -553.72c0,-44.03 -8.04,-84.67 -24.13,-121.92 -16.09,-37.25 -37.68,-70.27 -64.77,-99.06 -27.09,-28.79 -58.84,-51.22 -95.25,-67.31 -36.41,-16.09 -74.93,-24.13 -115.57,-24.13 -40.64,0 -79.16,8.04 -115.57,24.13 -36.41,16.09 -68.16,38.52 -95.25,67.31 -27.09,28.79 -48.68,61.81 -64.77,99.06 -16.09,37.25 -24.13,77.89 -24.13,121.92l0 553.72 -259.08 0 0 -1076.96 332.74 0c72.81,-32.17 148.17,-48.26 226.06,-48.26 86.36,0 166.79,18.2 241.3,54.61 74.51,36.41 137.16,86.78 187.96,151.13 52.49,-64.35 115.57,-114.72 189.23,-151.13 73.66,-36.41 153.67,-54.61 240.03,-54.61zm1089.66 -652.78l259.08 0 0 259.08 -259.08 0 0 -259.08zm259.08 701.04l0 1076.96 -259.08 0 0 -817.88 -401.32 0 0 -259.08 660.4 0zm685.8 -48.26c76.2,0 148.17,14.82 215.9,44.45 67.73,29.63 127,70.7 177.8,123.19 50.8,52.49 91.02,113.03 120.65,181.61 29.63,68.58 44.45,142.66 44.45,222.25l0 553.72 -259.08 0 0 -553.72c0,-44.03 -8.04,-84.67 -24.13,-121.92 -16.09,-37.25 -37.68,-70.27 -64.77,-99.06 -27.09,-28.79 -58.84,-51.22 -95.25,-67.31 -36.41,-16.09 -74.93,-24.13 -115.57,-24.13 -40.64,0 -79.16,8.04 -115.57,24.13 -36.41,16.09 -68.16,38.52 -95.25,67.31 -27.09,28.79 -48.68,61.81 -64.77,99.06 -16.09,37.25 -24.13,77.89 -24.13,121.92l0 553.72 -259.08 0 0 -1076.96 332.74 0c72.81,-32.17 148.17,-48.26 226.06,-48.26z"/>
   <path class="fil1" d="M7162.8 701.04c106.68,0 203.2,28.79 289.56,86.36l0 -787.4 259.08 0 0 1778 -98.64 0 -104.14 -78.74c-47.41,38.95 -100.33,69.85 -159.59,92.71 -59.27,22.86 -121.5,34.29 -187.54,34.29 -76.2,0 -147.32,-14.82 -214.21,-44.45 -66.46,-29.63 -124.88,-69.85 -174.83,-120.65 -49.96,-50.8 -88.9,-110.07 -117.69,-177.8 -28.79,-67.73 -43.18,-140.55 -43.18,-218.44 0,-77.89 14.39,-151.13 43.18,-219.71 28.79,-68.58 68.16,-128.27 118.11,-179.07 49.95,-50.8 108.37,-91.02 175.26,-120.65 66.89,-29.63 138.43,-44.45 214.63,-44.45zm0 866.14c37.25,0 72.81,-7.2 106.68,-21.59 33.87,-14.39 63.5,-33.44 88.9,-58 25.4,-24.55 46.57,-53.76 63.5,-87.2 16.93,-33.87 27.09,-69.43 30.48,-106.26l0 -60.96c-3.39,-38.52 -13.55,-74.51 -30.48,-107.53 -16.93,-32.59 -38.1,-61.38 -63.5,-85.93 -25.4,-24.56 -55.03,-43.61 -88.9,-58 -33.87,-14.39 -69.43,-21.59 -106.68,-21.59 -40.64,0 -78.32,8.04 -113.03,24.13 -34.71,16.09 -65.62,37.68 -92.71,65.62 -27.09,27.94 -48.26,60.11 -63.5,96.09 -15.24,36.41 -22.86,75.36 -22.86,117.69 0,42.33 7.62,81.28 22.86,117.69 15.24,35.98 36.41,68.15 63.5,96.09 27.09,27.94 58,49.53 92.71,65.62 34.71,16.09 72.39,24.13 113.03,24.13zm1818.64 -866.14l0 568.96 0 17.78 0 490.22 -93.98 0 -108.8 -81.28c-50.8,40.64 -106.68,72.39 -168.48,95.25 -61.81,22.86 -127.85,34.29 -198.97,34.29 -77.89,0 -151.13,-14.39 -220.56,-43.18 -69,-28.79 -129.96,-68.58 -182.45,-119.38 -52.5,-50.8 -93.14,-110.07 -122.77,-177.8 -29.63,-67.73 -44.45,-139.7 -44.45,-215.9l0 -568.96 264.16 0 0 570.65c0,40.64 8.04,79.17 24.13,114.73 16.09,35.56 38.1,66.88 66.04,93.98 27.94,27.51 60.54,48.68 97.79,63.92 37.25,15.24 77.05,22.86 119.38,22.86 42.33,0 82.55,-7.62 120.65,-22.86 38.1,-15.24 71.12,-36.41 99.06,-63.92 27.94,-27.1 49.95,-58.42 66.04,-93.98 16.09,-35.56 24.13,-74.09 24.13,-114.73l0 -570.65 259.08 0zm452.12 533.4l591.82 543.56 -383.54 0 -271.78 -248.92 0 248.92 -259.08 0 0 -1778 259.08 0 0 939.8 261.62 -238.76 386.08 0 -584.2 533.4z"/>
  </g>
 </g>
</svg>
