<?xml version="1.0" encoding="UTF-8"?>
<!DOCTYPE svg PUBLIC "-//W3C//DTD SVG 1.1//EN" "http://www.w3.org/Graphics/SVG/1.1/DTD/svg11.dtd">
<!-- Creator: CorelDRAW 2017 -->
<svg xmlns="http://www.w3.org/2000/svg" xml:space="preserve" width="189.571mm" height="32.8067mm" version="1.1" style="shape-rendering:geometricPrecision; text-rendering:geometricPrecision; image-rendering:optimizeQuality; fill-rule:evenodd; clip-rule:evenodd"
viewBox="0 0 18957.1 3280.67"
 xmlns:xlink="http://www.w3.org/1999/xlink">
 <defs>
  <style type="text/css">
   <![CDATA[
    .fil0 {fill:#FEFEFE}
    .fil2 {fill:#332C2B}
    .fil1 {fill:#E62129}
   ]]>
  </style>
 </defs>
 <g id="Layer_x0020_1">
  <metadata id="CorelCorpID_0Corel-Layer"/>
  <g id="_2165283664368">
   <circle class="fil0" cx="4450.31" cy="1590.89" r="998.82"/>
   <g>
    <circle class="fil1" cx="4450.31" cy="866.5" r="132.29"/>
    <path class="fil2" d="M4450.31 1365.98c124.21,0 224.91,100.7 224.91,224.91 0,124.21 -100.7,224.91 -224.91,224.91 -124.21,0 -224.91,-100.7 -224.91,-224.91 0,-124.21 100.7,-224.91 224.91,-224.91zm0 110.21c63.34,0 114.7,51.36 114.7,114.7 0,63.34 -51.36,114.7 -114.7,114.7 -63.34,0 -114.7,-51.36 -114.7,-114.7 0,-63.34 51.36,-114.7 114.7,-114.7z"/>
    <circle class="fil1" cx="4450.31" cy="2288.63" r="132.29"/>
    <circle class="fil1" cx="5174.69" cy="1590.89" r="132.29"/>
    <circle class="fil1" cx="3752.55" cy="1590.89" r="132.29"/>
    <g>
     <path class="fil2" d="M3996.34 897.83c124.21,0 224.91,100.7 224.91,224.91 0,124.21 -100.7,224.91 -224.91,224.91 -124.21,0 -224.91,-100.7 -224.91,-224.91 0,-124.21 100.7,-224.91 224.91,-224.91zm0 110.21c63.34,0 114.7,51.36 114.7,114.7 0,63.34 -51.36,114.7 -114.7,114.7 -63.34,0 -114.7,-51.36 -114.7,-114.7 0,-63.34 51.36,-114.7 114.7,-114.7z"/>
     <path class="fil2" d="M4904.27 897.83c124.21,0 224.91,100.7 224.91,224.91 0,124.21 -100.7,224.91 -224.91,224.91 -124.21,0 -224.91,-100.7 -224.91,-224.91 0,-124.21 100.7,-224.91 224.91,-224.91zm0 110.21c63.34,0 114.7,51.36 114.7,114.7 0,63.34 -51.36,114.7 -114.7,114.7 -63.34,0 -114.7,-51.36 -114.7,-114.7 0,-63.34 51.36,-114.7 114.7,-114.7z"/>
    </g>
    <g>
     <path class="fil2" d="M3996.34 1830.49c124.21,0 224.91,100.7 224.91,224.91 0,124.21 -100.7,224.91 -224.91,224.91 -124.21,0 -224.91,-100.7 -224.91,-224.91 0,-124.21 100.7,-224.91 224.91,-224.91zm0 110.21c63.34,0 114.7,51.36 114.7,114.7 0,63.34 -51.36,114.7 -114.7,114.7 -63.34,0 -114.7,-51.36 -114.7,-114.7 0,-63.34 51.36,-114.7 114.7,-114.7z"/>
     <path class="fil2" d="M4904.27 1830.49c124.21,0 224.91,100.7 224.91,224.91 0,124.21 -100.7,224.91 -224.91,224.91 -124.21,0 -224.91,-100.7 -224.91,-224.91 0,-124.21 100.7,-224.91 224.91,-224.91zm0 110.21c63.34,0 114.7,51.36 114.7,114.7 0,63.34 -51.36,114.7 -114.7,114.7 -63.34,0 -114.7,-51.36 -114.7,-114.7 0,-63.34 51.36,-114.7 114.7,-114.7z"/>
    </g>
   </g>
  </g>
  <g id="_2165283666640">
   <path class="fil0" d="M11234.61 999.24c646.96,0.07 933.8,86.79 932.33,773.28 -1.5,704.01 -263.7,798.7 -937.03,798.7l4.7 -1571.98zm-818.13 2208.44c346.16,119.15 1540.44,11.56 1848.04,-134.18 1010.66,-478.83 976.04,-2175.47 3.61,-2605.42 -318.01,-140.6 -1502.9,-255.88 -1851.65,-131.7l0 2871.3z"/>
   <path class="fil0" d="M18134.71 1455.08c-141.48,111.75 -387.98,202.05 -635.04,134.08 -174.77,-48.08 -267.24,-270.56 -178.3,-479.29 138.81,-325.78 774.95,-310.02 813.34,345.21zm-1447.32 1552.22c242.77,235.36 783.61,313.45 1183.07,240.46 1344.01,-245.61 1325.93,-2171.04 572.04,-2744.11 -637.28,-484.44 -1756.47,-202.21 -1902.88,567.73 -92.31,485.42 84.11,853.16 415.5,1026.74 435.24,227.97 783.33,96.6 1166.41,-48.41 -121.27,894.86 -892.19,511.77 -1117.84,434.03l-316.3 523.56z"/>
   <path class="fil0" d="M2657.04 2223.21l-777.9 -159.32c-202.45,878.97 -1012.66,648.38 -1053.19,-219.77 -44.69,-957.36 581.62,-979.72 808.63,-796.57 154.28,124.47 125.54,222.23 228.31,379.41 182.49,-11.77 601.45,-130.65 750.4,-218.82 -152,-1297.27 -2674.44,-1435.89 -2612.15,635.59 48.91,1626.09 1582.61,1615.3 2187.38,1207.04 198.11,-133.73 426.44,-456.89 468.52,-827.56z"/>
   <path class="fil0" d="M7733.22 3233.19c180.31,-394.17 706.88,-2038.02 913.51,-2650.8 118.09,-350.22 213.28,-263.06 -676.85,-278.46l-614.46 1787.72 -567.4 -1784.37 -783.86 0.15c-25.21,154.35 832.85,2623.92 964.19,2928.9l764.87 -3.14z"/>
   <path class="fil0" d="M14633.44 493.36l2.43 671.55c197.79,13.64 340.33,-54.87 504.81,-95.13l3.03 1528.09 -493.38 2.89 -25.73 632.21c325.36,6.89 1569.25,34.99 1758.82,-21.85 0,-703.74 146.51,-580.15 -440.3,-619.58 0,-366.15 42.47,-2065.54 -23.82,-2280.66 -1250.19,-57.45 -639.21,152.46 -1285.86,182.48z"/>
   <path class="fil0" d="M9040.66 3148.42c0,160.67 667.64,96.7 805.92,81.46 41.06,-151.2 41.06,-2763.4 0,-2914.6 -133.18,-14.67 -805.92,-82.21 -805.92,81.47l0 2751.67z"/>
   <path class="fil0" d="M13264.76 2257.11c260.46,13.36 901.72,51.35 1097.74,-18.48l11.71 -511.21 -1098.43 -9.23c-48.43,160.14 -35.37,373.47 -11.02,538.92z"/>
   <g>
    <path class="fil0" d="M4450.31 451.06c629.51,0 1139.83,510.32 1139.83,1139.83 0,629.51 -510.32,1139.83 -1139.83,1139.83 -629.51,0 -1139.83,-510.32 -1139.83,-1139.83 0,-629.51 510.32,-1139.83 1139.83,-1139.83zm0 141.01c551.63,0 998.82,447.19 998.82,998.82 0,551.63 -447.19,998.82 -998.82,998.82 -551.63,0 -998.82,-447.19 -998.82,-998.82 0,-551.63 447.19,-998.82 998.82,-998.82z"/>
    <polygon class="fil0" points="4387.55,0 4513.23,0 4648.83,0 4648.83,125.68 4513.23,125.68 4513.23,542.39 4387.55,542.39 4387.55,125.68 4251.96,125.68 4251.96,0 "/>
    <polygon class="fil0" points="6034.63,1653.73 6034.63,1528.05 6034.63,1392.45 5908.95,1392.45 5908.95,1528.05 5492.24,1528.05 5492.24,1653.73 5908.95,1653.73 5908.95,1789.32 6034.63,1789.32 "/>
    <polygon class="fil0" points="2876.02,1528.04 2876.02,1653.72 2876.02,1789.32 3001.7,1789.32 3001.7,1653.72 3418.41,1653.72 3418.41,1528.04 3001.7,1528.04 3001.7,1392.45 2876.02,1392.45 "/>
    <polygon class="fil0" points="5542.16,2767.69 5631.02,2678.83 5726.91,2582.94 5638.04,2494.07 5542.16,2589.96 5247.5,2295.3 5158.63,2384.17 5453.29,2678.83 5357.41,2774.7 5446.28,2863.57 "/>
    <polygon class="fil0" points="3282.18,2670.69 3371.04,2759.55 3466.93,2855.44 3555.8,2766.57 3459.91,2670.69 3754.57,2376.03 3665.7,2287.16 3371.04,2581.82 3275.17,2485.94 3186.3,2574.81 "/>
    <polygon class="fil0" points="3293.31,493.25 3382.18,404.38 3478.07,308.5 3566.94,397.37 3471.05,493.25 3765.71,787.91 3676.84,876.78 3382.18,582.12 3286.31,678 3197.44,589.13 "/>
    <polygon class="fil0" points="5525.31,417.61 5614.18,506.48 5710.06,602.37 5621.19,691.24 5525.31,595.35 5230.65,890.01 5141.78,801.14 5436.44,506.48 5340.56,410.61 5429.43,321.74 "/>
    <polygon class="fil0" points="3882.02,325.48 4003.57,293.51 4134.7,258.99 4166.67,380.55 4035.54,415.04 4093.96,637.07 3972.55,669.6 3914,447.02 3782.87,481.51 3750.89,359.97 "/>
    <polygon class="fil0" points="3131.6,1123.63 3164.69,1002.38 3200.36,871.56 3321.62,904.65 3285.93,1035.46 3507.41,1095.88 3474.88,1217.29 3252.85,1156.71 3217.15,1287.52 3095.9,1254.44 "/>
    <polygon class="fil0" points="3158.58,2079.64 3191.67,2200.89 3227.34,2331.71 3348.6,2298.62 3312.91,2167.81 3534.39,2107.39 3501.86,1985.98 3279.83,2046.56 3244.13,1915.75 3122.88,1948.83 "/>
    <polygon class="fil0" points="5727.06,1002.11 5759.02,1123.66 5793.54,1254.79 5671.98,1286.77 5637.49,1155.63 5415.46,1214.05 5382.93,1092.64 5605.51,1034.09 5571.02,902.96 5692.56,870.98 "/>
    <polygon class="fil0" points="5754.04,2201.16 5786,2079.61 5820.52,1948.48 5698.96,1916.5 5664.47,2047.64 5442.44,1989.22 5409.91,2110.63 5632.49,2169.18 5598,2300.31 5719.54,2332.29 "/>
    <polygon class="fil0" points="4891.07,269.31 5012.31,302.4 5143.14,338.08 5110.05,459.34 4979.24,423.64 4918.81,645.13 4797.41,612.6 4857.99,390.56 4727.18,354.87 4760.26,233.62 "/>
    <polygon class="fil0" points="4387.46,3171.3 4513.14,3171.3 4648.74,3171.3 4648.74,3045.62 4513.14,3045.62 4513.14,2628.91 4387.46,2628.91 4387.46,3045.62 4251.87,3045.62 4251.87,3171.3 "/>
    <polygon class="fil0" points="3909,2877.79 4030.55,2909.76 4161.68,2944.28 4193.65,2822.72 4062.52,2788.23 4120.94,2566.2 3999.53,2533.67 3940.98,2756.25 3809.85,2721.76 3777.87,2843.3 "/>
    <polygon class="fil0" points="4918.05,2933.96 5039.29,2900.87 5170.12,2865.19 5137.03,2743.93 5006.22,2779.63 4945.79,2558.14 4824.39,2590.67 4884.97,2812.71 4754.16,2848.4 4787.24,2969.65 "/>
   </g>
  </g>
 </g>
</svg>
