<?xml version="1.0" encoding="UTF-8"?>
<!DOCTYPE svg PUBLIC "-//W3C//DTD SVG 1.1//EN" "http://www.w3.org/Graphics/SVG/1.1/DTD/svg11.dtd">
<!-- Creator: CorelDRAW 2017 -->
<svg xmlns="http://www.w3.org/2000/svg" xml:space="preserve" width="149.671mm" height="189.085mm" version="1.1" style="shape-rendering:geometricPrecision; text-rendering:geometricPrecision; image-rendering:optimizeQuality; fill-rule:evenodd; clip-rule:evenodd"
viewBox="0 0 14967.08 18908.48"
 xmlns:xlink="http://www.w3.org/1999/xlink">
 <defs>
  <style type="text/css">
   <![CDATA[
    .fil0 {fill:#FF9800}
    .fil1 {fill:white}
   ]]>
  </style>
 </defs>
 <g id="Layer_x0020_1">
  <metadata id="CorelCorpID_0Corel-Layer"/>
  <path class="fil0" d="M902.13 16181.34l0 155.59c0,194.33 241.25,435.67 435.51,435.67 447.46,0 469.68,-142.17 933.46,-466.56 321.99,-225.22 1792.33,-1398.99 2076.47,-1688.17 148.44,-151.08 282.6,-251.96 435.26,-404.79 975.78,-976.84 1932.21,-1964.25 2650.23,-3168.06 325.51,-545.75 760.2,-1124.27 369.09,-1517.18 -245.81,-246.93 -676.44,-217.65 -863.85,150.93 -345.62,679.74 -437.99,917.97 -938.85,1581.43 -121.68,161.17 -222.66,295.72 -350.95,458.02l-903.02 1026.02c-4.13,4.95 -10.02,12.02 -14.17,16.94 -266.77,316.66 -801.54,788.86 -1130.34,1078.71 -791.82,698.04 -1441.25,1254.07 -2325.8,1874.42 -136.95,96.05 -373.04,244.37 -373.04,467.03z"/>
  <g id="_2568405191280">
   <path class="fil1" d="M-0 11949.18c0,350.15 209.53,560.14 528.84,560.14 219.83,0 392.03,-147.32 535.03,-242.75 86.9,-57.98 162.78,-105.44 242.58,-161.88 78.27,-55.36 144.62,-111.54 230.97,-173.48 160.91,-115.43 292.68,-210.96 443.82,-334l437.66 -371.27c220.8,-218.37 456.79,-391.7 694.8,-674.19 556.89,-660.97 673.88,-800.78 1027.14,-1586.48 228.51,-508.24 589.01,-1048.07 984.18,-1442.74 155.8,-155.6 238.42,-235.01 412.15,-365.67 148.08,-111.36 318.33,-225.06 492.89,-316.02 1355.06,-706.12 3020.67,-255.51 3902.56,929.21 786.77,1056.94 580.27,2186.26 330.59,3429.89 -193.08,961.68 -246.48,1165.92 -246.48,2149.59 0,673.15 382.25,1834.27 777.45,2396.39 335.54,477.25 756.8,829.34 1295.78,1068.8 226.85,100.79 410.55,206.83 664.26,206.83 243.21,0 497.73,-206.46 497.73,-435.66 0,-790.7 -519.59,-457.93 -1204.5,-1035.64 -130.85,-110.36 -225.47,-216.96 -329.02,-355.47 -591.32,-790.89 -749.92,-2047.9 -548.49,-3025.54 217.29,-1054.57 553.95,-2596.13 295.07,-3598.21 -73.11,-283 -142.85,-535.44 -261.76,-765.06 -265.12,-511.91 -544.43,-927.02 -1004.23,-1298.21l-435.54 -342.28c-99.18,-72.98 -197.34,-134.72 -306.49,-191.31l-352.56 -176.33c-338.1,-161.25 -417.24,-167.18 -763.87,-262.78 -1236.21,-340.97 -2519.16,75.83 -3478.94,790.42l-467.97 403.19c-427.91,427.06 -805.21,991.82 -1091,1522.59 -262.71,487.89 -252.89,649.16 -614,1128.44 -133.64,177.36 -240.31,324.07 -394.38,476.81 -727.01,720.73 -1022.29,986.17 -1908.5,1576.13 -185.01,123.15 -385.77,221.28 -385.77,516.54z"/>
   <path class="fil1" d="M-0 9397.44c0,294.77 245.44,560.14 528.84,560.14 473.3,0 1334.84,-903.58 1687.85,-1298.96 382.25,-428.14 832.08,-1249.19 1205.37,-1781.6 50.16,-71.55 102.69,-138.41 162.53,-210.84l428.29 -505.12c4.12,-4.97 9.88,-12.15 13.99,-17.12l470.19 -432.1c1003.99,-780.11 1746.87,-1013.34 3155.48,-1013.34 940.54,0 1871.68,340.55 2599.32,822.83 925.84,613.63 2004.63,2092.8 2004.63,3129.26 0,1010.55 -44.47,1160.48 -200.29,2133.54 -325.43,2032.17 -457.93,3041.18 1280.99,4658.44 534.91,497.47 941.32,2.24 941.32,-350.39 0,-288.54 -212.57,-415.02 -365.52,-567.91 -457.26,-457.09 -1003.23,-1156.9 -1003.23,-1890.47 0,-1428.06 789.42,-3295.31 237.18,-4967.33 -60.09,-181.97 -111.45,-301.05 -185.59,-467.84 -216.44,-486.94 -424.04,-829.69 -753.33,-1269.12 -135.29,-180.53 -490.85,-591.11 -681.03,-750.19 -823.33,-688.67 -1417.2,-1088.63 -2549.08,-1371 -1443.32,-360.06 -3155.69,-190.63 -4423.15,560.89 -792.94,470.15 -1521,1177.6 -2041.18,1941.31l-621.86 964.98c-421.49,700.41 -875.59,1199.79 -1562.41,1642.28 -160.76,103.57 -329.31,231.11 -329.31,479.66z"/>
   <path class="fil1" d="M-0 14251.98c0,340.43 138.23,622.37 528.84,622.37 244.3,0 766.18,-437.35 1026.67,-622.26l977.59 -702.48c327.15,-246.76 611.44,-472.97 924.5,-724.47l533.56 -493.17c338.11,-306.5 814.21,-875.09 1061.36,-1241.06l323.48 -516.62c111.08,-183.61 196.57,-343.99 295.94,-544.15 429.31,-864.78 698.37,-1659.61 1856.16,-1659.61 720.03,0 1275.43,850.81 1275.43,1524.81l0 217.84c0,905.56 -1223.13,2540.05 -1904.75,3229.18 -473.05,478.27 -731.15,771.85 -1275.65,1275.65l-1610.76 1376.07c-82.23,62.68 -148.2,124.06 -238.51,197.08l-987.52 754.78c-375.43,282.96 -391.04,282.11 -391.04,666.86 0,109.14 100.21,248.23 163.12,303.61 375.58,330.66 765.71,-35.92 956.77,-179.13l2071.07 -1662.45c181.12,-140.97 317.75,-296.6 497.75,-435.64 100.48,-77.61 148.91,-145.72 238.27,-228.43l1641.34 -1656.67c560.07,-731.73 1073.21,-1211.03 1525.15,-2208.57 581.94,-1284.51 572.61,-2309.51 -311.67,-3455.35 -349.96,-453.46 -1116.59,-808.81 -1711.21,-808.81 -943.21,0 -1785.05,544.83 -2277.36,1331.63 -229.04,366.04 -505.56,1086.15 -944.97,1762.03l-580.46 757.45c-344.01,346.04 -242.72,292.29 -684.22,684.76 -90.5,80.45 -134.84,122.35 -231.76,203.82 -610.87,513.5 -1681.74,1293.32 -2336.56,1739.19 -147.05,100.13 -410.56,268.01 -410.56,491.74z"/>
   <path class="fil1" d="M217.76 6596.75c0,604.41 653.74,787.13 974.67,352.64l263.44 -421.08c195.32,-292.9 368.76,-538.79 579.44,-820.7 275.48,-368.6 634.42,-798.5 958.75,-1125.87 71.02,-71.67 103.07,-105.21 178.93,-163.32 307.93,-235.86 593.97,-517.26 1005.56,-736.74 1938.12,-1033.46 4263.47,-1109.1 6232.33,-124.32 147.91,73.99 246.66,136.71 383.72,207.41 124.48,64.19 247.64,144.39 367,224.13 235.39,157.24 466.14,319.82 680.89,501.38 607.6,513.69 938.54,848.08 1439.92,1515.86 444.65,592.21 1397.86,69.93 805.09,-712.02 -370.98,-489.37 -472.04,-589.84 -921.1,-1039.05 -637.96,-638.19 -1079.56,-954.74 -1849.12,-1417.72 -72.45,-43.58 -118.72,-68.94 -198.43,-112.68l-671.02 -324.55c-1768.31,-728.21 -3898.54,-825.64 -5683.85,-155.51 -500.03,187.68 -538.67,211.94 -1010.76,451.46 -320.78,162.75 -619.64,391.55 -895.81,597.57 -285.79,213.21 -514.1,445.52 -765.41,696.91 -437.82,437.98 -1874.24,2235.54 -1874.24,2606.2z"/>
   <path class="fil1" d="M902.13 3018.09l0 155.6c0,269.75 360.91,510.02 629.44,445.62 268.86,-64.47 359.76,-268.41 622.65,-531.21 753.2,-752.91 1868.85,-1424.88 2884.96,-1688.48 1165.48,-302.34 1454.94,-310.9 2644.46,-310.9 1251.55,0 2570.58,374.45 3650.45,922.74 454.4,230.71 996.76,614.89 1397.78,935.63 578.04,462.32 1199.04,-374.04 729.63,-792.11l-316.18 -243.86c-688.34,-514.81 -728.62,-490.96 -1411.24,-891.05 -206.63,-121.11 -565.56,-253.3 -794.51,-356.61 -664.17,-299.71 -2089.5,-595.79 -2789.15,-632.93 -371.58,-19.73 -772.07,-52.95 -1097.43,-8.35 -176.52,24.2 -358.98,-4.53 -538.53,21.43 -1200.5,173.58 -1561.99,192.79 -2737.08,685.03l-769.51 381.61c-349.4,195.38 -717.29,441.01 -1021.6,689.58 -259.86,212.26 -1084.14,914.28 -1084.14,1218.26z"/>
   <path class="fil1" d="M13438.6 7343.6c0,224.91 -9.63,216 82.72,415.15 435.4,938.86 454.37,2906.69 268.92,4013.19l-227.21 1328.64c0,237.02 208.29,497.9 435.51,497.9 394.27,0 533.07,-74.3 641.36,-509.81 396.01,-1592.62 512.22,-4133.93 -107.34,-5688.02 -168.68,-423.12 -266.2,-492.71 -658.46,-492.71 -194.26,0 -435.5,241.33 -435.5,435.66z"/>
   <path class="fil1" d="M4883.93 18546.37c169.02,0 256.28,10.89 401.87,-95.89l539.14 -549.83c957.1,-960.58 1468.23,-643.09 1854.45,556.61 53.01,164.66 60.49,209.29 181.96,315.88 312.84,274.51 879.96,133.92 879.96,-444.6 0,-335.97 -446.6,-1212.29 -754.08,-1517.32 -1042.43,-1034.12 -2124.6,-473.65 -3033.3,435.94 -263.84,264.09 -733.45,667.59 -432.24,1070.32 72.59,97.07 209.9,228.89 362.24,228.89z"/>
   <path class="fil1" d="M10327.81 18266.3c692.88,0 688.4,-671.2 443.25,-910.19 -330.26,-321.95 -837.8,-547.71 -1237.18,-1345.25 -242.49,-484.26 -315.92,-1031.13 -143.84,-1545.59 82.14,-245.57 312.23,-547.51 27.78,-858.93 -233.74,-255.89 -719.83,-265.45 -956.69,272.01 -338.13,767.26 -297.78,1694.83 10.35,2386.19 246.43,552.91 408.9,739.29 775.08,1154.02 201.84,228.59 806.58,847.74 1081.25,847.74z"/>
  </g>
 </g>
</svg>
