<?xml version="1.0" encoding="UTF-8"?>
<!DOCTYPE svg PUBLIC "-//W3C//DTD SVG 1.1//EN" "http://www.w3.org/Graphics/SVG/1.1/DTD/svg11.dtd">
<!-- Creator: CorelDRAW 2017 -->
<svg xmlns="http://www.w3.org/2000/svg" xml:space="preserve" width="200mm" height="200mm" version="1.1" style="shape-rendering:geometricPrecision; text-rendering:geometricPrecision; image-rendering:optimizeQuality; fill-rule:evenodd; clip-rule:evenodd"
viewBox="0 0 30230.48 30230.48"
 xmlns:xlink="http://www.w3.org/1999/xlink">
 <defs>
  <style type="text/css">
   <![CDATA[
    .fil1 {fill:none}
    .fil0 {fill:#E53935}
   ]]>
  </style>
 </defs>
 <g id="Layer_x0020_1">
  <metadata id="CorelCorpID_0Corel-Layer"/>
  <g id="_3152948462784">
   <g id="Desktop-Homepage">
    <g id="Homepage---Pulsa">
     <g id="services">
      <g id="telepon">
       <g id="serv_Telepon">
        <path id="Shape" class="fil0" d="M15115.24 26451.67c-6231.76,0 -11336.43,-5071.71 -11336.43,-11336.43 0,-6264.72 5104.67,-11336.43 11336.43,-11336.43 6231.76,0 11336.43,5104.67 11336.43,11336.43 0,2055.26 -563.72,4043.89 -1591.18,5800.99 -132.59,231.87 -430.77,298.16 -695.97,165.57 -232.22,-132.59 -298.51,-430.77 -165.92,-695.97 961.51,-1591.18 1458.58,-3414.21 1458.58,-5270.59 0,-5701.36 -4640.57,-10341.94 -10341.94,-10341.94 -5701.36,0 -10341.94,4640.57 -10341.94,10341.94 0,5701.36 4640.57,10341.94 10341.94,10341.94 1988.97,0 3745.72,-563.36 4773.18,-1557.85 894.85,-861.89 1292.66,-1756.74 1226.34,-2618.62 -198.89,-1856.38 -2519,-3314.61 -2784.2,-3480.53 -33.33,0 -33.33,-32.98 -33.33,-32.98 -32.98,0 -99.28,32.98 -165.57,99.28 -66.3,66.3 -364.82,331.49 -530.39,530.39 -265.2,265.2 -430.77,430.77 -530.39,497.06 -198.89,165.92 -497.06,364.82 -828.56,298.53 -132.61,0 -232.23,-66.3 -364.82,-132.61 -198.9,-99.62 -1093.75,-762.26 -2651.61,-2519.36 -1790.08,-2021.94 -1823.05,-3215.31 -1823.05,-3546.82 32.97,-364.46 298.16,-596.33 497.06,-762.26 198.9,-165.57 464.1,-331.49 695.97,-464.08 198.9,-99.28 397.79,-231.87 563.72,-397.8 66.3,-66.3 132.59,-99.26 132.59,-132.59 0,0 0,0 0,-32.98 -66.3,-132.59 -994.49,-2254.17 -1293,-2850.85 -99.28,0 -231.87,0 -298.18,33.33 -1889.34,762.26 -2154.54,1955.64 -2187.86,2419.74 -32.98,331.49 -165.57,3380.9 2486.03,6596.23 2950.13,3580.13 5303.92,4010.9 5734.69,4043.89 99.26,0 629.66,66.3 1292.66,-165.57 265.18,-99.62 530.38,32.97 630,298.16 99.28,265.2 -33.31,530.39 -298.51,630.02 -663,231.87 -1325.98,265.2 -1723.77,231.87 -728.95,-66.3 -3314.61,-629.66 -6397.33,-4408.36 -2883.84,-3513.84 -2751.23,-6928.07 -2717.92,-7292.53 32.98,-530.39 331.49,-2254.17 2784.21,-3215.33 331.49,-132.61 1127.08,-198.9 1425.25,198.9 132.61,165.57 1458.59,3182 1458.59,3215.31 66.3,165.57 66.3,331.51 66.3,497.08 -32.98,265.18 -198.9,497.41 -497.06,762.61 -232.23,165.57 -464.1,331.49 -696.31,497.06 -198.9,132.59 -397.8,231.87 -596.7,397.79 -66.3,66.31 -99.26,99.28 -132.59,99.28 0,198.9 132.59,1127.08 1558.2,2718.26 1491.56,1690.44 2253.82,2220.84 2353.44,2287.13 32.97,0 66.3,-32.97 132.59,-99.26 66.31,-66.31 265.2,-265.2 430.77,-431.13 331.49,-331.49 530.39,-530.38 663,-629.66 331.49,-232.23 596.69,-331.49 861.89,-298.53 165.57,33.33 331.49,66.3 464.08,165.92 497.06,298.18 3016.43,1955.65 3281.62,4242.79 132.61,1226.36 -364.82,2386.77 -1524.87,3447.2 -1193.38,1160.41 -3182,1856.38 -5436.17,1856.38z"/>
       </g>
      </g>
     </g>
    </g>
   </g>
  </g>
  <circle class="fil1" cx="15115.24" cy="15115.24" r="15115.24"/>
 </g>
</svg>
